<?xml version="1.0" encoding="UTF-8" standalone="no"?>
<svg
   xmlns:dc="http://purl.org/dc/elements/1.1/"
   xmlns:cc="http://creativecommons.org/ns#"
   xmlns:rdf="http://www.w3.org/1999/02/22-rdf-syntax-ns#"
   xmlns:svg="http://www.w3.org/2000/svg"
   xmlns="http://www.w3.org/2000/svg"
   id="svg12"
   version="1.1"
   viewBox="0 0 60.827423 63.999993"
   height="63.999992"
   width="60.827423">
  <metadata
     id="metadata18">
    <rdf:RDF>
      <cc:Work
         rdf:about="">
        <dc:format>image/svg+xml</dc:format>
        <dc:type
           rdf:resource="http://purl.org/dc/dcmitype/StillImage" />
        <dc:title>logo</dc:title>
      </cc:Work>
    </rdf:RDF>
  </metadata>
  <defs
     id="defs16" />
  <title
     id="title2">logo</title>
  <g
     transform="translate(0,-20.000006)"
     style="fill:none;fill-rule:evenodd"
     id="g10">
    <path
       style="fill:#09090a;stroke-width:0.76411521"
       id="path8"
       d="m 46.404717,42.050075 c -0.02751,0.0382 -0.05731,0.07641 -0.08558,0.114617 a 5.4787061,5.4787061 0 0 1 -0.748069,0.822952 5.484819,5.484819 0 0 1 -1.054479,0.738135 5.3434577,5.3434577 0 0 1 -2.552144,0.651026 c -2.979286,0 -5.402295,-2.420717 -5.402295,-5.394653 0,-0.58684 0.09934,-1.149229 0.273553,-1.677233 a 5.4084075,5.4084075 0 0 1 1.226405,-2.041716 c 0.04814,-0.05043 0.09552,-0.100863 0.145946,-0.149766 a 5.385484,5.385484 0 0 1 3.757155,-1.525174 c 2.979285,0 5.403822,2.419188 5.403822,5.393889 a 5.3541553,5.3541553 0 0 1 -0.965077,3.067923 M 49.465,58.126295 c 0,12.960158 -10.562365,23.504948 -23.546211,23.504948 -12.983846,0 -23.5462103,-10.54479 -23.5462103,-23.504184 0,-12.960923 10.5623643,-23.505713 23.5462103,-23.505713 3.433934,0 6.69747,0.738136 9.64237,2.063112 -0.260563,0.718268 -0.404981,1.491552 -0.404981,2.298458 0,3.748749 3.054169,6.798333 6.808267,6.798333 1.23481,0 2.39168,-0.330862 3.391143,-0.90624 A 23.342956,23.342956 0 0 1 49.465,58.127059 M 60.77314,35.982236 A 0.62504625,0.62504625 0 0 0 59.947895,35.665892 L 48.48311,40.951277 c 0.118438,-0.389699 0.201727,-0.79468 0.248338,-1.211123 0.02292,-0.01299 0.04738,-0.02521 0.06877,-0.04126 l 5.906611,-4.716119 a 0.62504625,0.62504625 0 0 0 -0.747305,-1.000227 l -5.235717,4.17971 A 6.7639479,6.7639479 0 0 0 47.156606,34.59002 l 5.298375,-5.170768 a 0.62504625,0.62504625 0 0 0 -0.842819,-0.921523 l -5.347278,5.217379 A 6.784579,6.784579 0 0 0 42.759123,32.23196 l 4.141505,-5.170003 a 0.62504625,0.62504625 0 0 0 -0.945211,-0.81684 l -4.797879,5.988371 c -0.511957,0.06113 -1.00634,0.178803 -1.477035,0.346909 l 5.393125,-11.696312 a 0.62504625,0.62504625 0 0 0 -1.127834,-0.538701 l -6.10146,13.232183 c -0.298005,0.227706 -0.579199,0.477572 -0.835942,0.750361 -0.103919,0.09704 -0.191029,0.190265 -0.272025,0.280431 A 25.857659,25.857659 0 0 0 25.918788,32.251825 C 11.604618,32.251825 0,43.835812 0,58.127059 0,72.416013 11.604618,84 25.918788,84 40.233723,84 51.837576,72.416013 51.837576,58.127059 A 25.722411,25.722411 0 0 0 47.185643,43.335316 c 0.06113,-0.07259 0.125315,-0.149002 0.191029,-0.231526 0.09934,-0.1299 0.192557,-0.262856 0.282722,-0.398869 l 0.0107,-0.0038 12.786704,-5.895149 a 0.6227539,0.6227539 0 0 0 0.316344,-0.823716" />
  </g>
</svg>
